<svg xmlns="http://www.w3.org/2000/svg" width="13" height="12.398" viewBox="0 0 13 12.398">
  <path id="noun_Star_1822860" d="M17.98,11.8c-.053-.162-.184-.272-.577-.309l-3.59-.333a.442.442,0,0,1-.415-.3L11.972,7.541c-.156-.363-.3-.454-.472-.454s-.315.091-.472.454L9.6,10.853a.442.442,0,0,1-.415.3l-3.59.333c-.393.037-.525.146-.577.309s-.011.328.286.589l2.709,2.38a.443.443,0,0,1,.159.488L7.379,18.77c-.087.386-.023.544.115.645s.309.112.648-.09l3.1-1.841a.441.441,0,0,1,.513,0l3.1,1.841c.34.2.51.19.649.09s.2-.259.115-.645l-.793-3.517a.443.443,0,0,1,.159-.488l2.709-2.38C17.992,12.123,18.033,11.958,17.98,11.8Z" transform="translate(-5 -7.087)" fill="#fbb03b"/>
</svg>
