<svg xmlns="http://www.w3.org/2000/svg" width="9.857" height="9.401" viewBox="0 0 9.857 9.401">
  <path id="noun_Star_1822860" d="M14.842,10.657c-.04-.123-.139-.206-.438-.234l-2.722-.253a.335.335,0,0,1-.315-.228L10.286,7.431c-.119-.275-.228-.344-.358-.344s-.239.069-.358.344L8.489,9.942a.335.335,0,0,1-.315.228l-2.722.252c-.3.028-.4.111-.438.234s-.009.249.217.447l2.054,1.8a.336.336,0,0,1,.12.37l-.6,2.667c-.066.292-.018.413.087.489s.234.085.492-.068l2.351-1.4a.335.335,0,0,1,.389,0l2.351,1.4c.258.153.387.144.492.068s.153-.2.087-.489l-.6-2.667a.336.336,0,0,1,.12-.37l2.054-1.8C14.851,10.906,14.882,10.78,14.842,10.657Z" transform="translate(-5 -7.087)" fill="#fbb03b"/>
</svg>
