<svg xmlns="http://www.w3.org/2000/svg" width="11" height="13.444" viewBox="0 0 11 13.444">
  <g id="noun_profile_1287413" transform="translate(-32 -28)">
    <g id="Group_233" data-name="Group 233" transform="translate(32 28)">
      <path id="Path_211" data-name="Path 211" d="M43,40.833a.611.611,0,0,1-1.222,0,4.278,4.278,0,0,0-8.556,0,.611.611,0,0,1-1.222,0,5.5,5.5,0,1,1,11,0Zm-5.5-6.111a3.361,3.361,0,1,1,3.361-3.361A3.361,3.361,0,0,1,37.5,34.722Zm0-1.222a2.139,2.139,0,1,0-2.139-2.139A2.139,2.139,0,0,0,37.5,33.5Z" transform="translate(-32 -28)" fill="#b9b9b9"/>
    </g>
  </g>
</svg>
