<svg xmlns="http://www.w3.org/2000/svg" width="17" height="14.164" viewBox="0 0 17 14.164">
  <path id="noun_delivery_1665162" d="M33.4,22.59H22.767a.708.708,0,0,0-.708.708v3.533H19.942a.706.706,0,0,0-.589.315l-2.124,3.2a.708.708,0,0,0-.119.393v3.189a.708.708,0,0,0,.708.708h.039a2.468,2.468,0,0,0,4.887,0h4.318a2.468,2.468,0,0,0,4.887,0H33.4a.708.708,0,0,0,.708-.708V23.3A.708.708,0,0,0,33.4,22.59ZM18.526,30.95l1.809-2.693h1.734v4.287c-.028-.028-.059-.047-.088-.072-.07-.065-.14-.124-.215-.181l-.15-.1a2.017,2.017,0,0,0-.258-.134c-.1-.041-.1-.052-.16-.075a2.3,2.3,0,0,0-.295-.093c-.049-.013-.1-.028-.147-.039a2.362,2.362,0,0,0-.47-.049,2.326,2.326,0,0,0-.468.049.641.641,0,0,0-.15.039,2.258,2.258,0,0,0-.292.093c-.057.023-.111.049-.165.078a2.171,2.171,0,0,0-.24.132c-.054.034-.106.07-.16.109a2.479,2.479,0,0,0-.2.165c-.062.057-.067.052-.1.083Zm1.77,4.393a1.065,1.065,0,0,1-1.062-1.062,1.313,1.313,0,0,1,.021-.214,1.062,1.062,0,0,1,2.083,0,1.189,1.189,0,0,1,.021.217A1.065,1.065,0,0,1,20.3,35.341Zm9.211,0a1.065,1.065,0,1,1,1.034-1.292,1.189,1.189,0,0,1,.023.217,1.065,1.065,0,0,1-1.057,1.073Zm2.238-2.127c-.023-.049-.054-.1-.083-.145s-.039-.078-.062-.114a2.887,2.887,0,0,0-.2-.258.432.432,0,0,1-.031-.041,2.488,2.488,0,0,0-.279-.258l-.085-.065a2.041,2.041,0,0,0-.233-.158l-.119-.065A1.9,1.9,0,0,0,30.422,32a1.361,1.361,0,0,0-.132-.049,2.3,2.3,0,0,0-.258-.072l-.124-.026a2.223,2.223,0,0,0-.8,0l-.121.026a2.344,2.344,0,0,0-.258.072A.433.433,0,0,0,28.6,32a2.558,2.558,0,0,0-.24.114l-.111.059a2.4,2.4,0,0,0-.258.173l-.065.047a2.559,2.559,0,0,0-.517.6l-.044.078c-.031.057-.067.111-.093.168H23.486V24.006h9.208v2.127H27.734a.708.708,0,0,0,0,1.416h4.959v5.665Z" transform="translate(-17.11 -22.59)" fill="#d8d8d8"/>
</svg>
