<svg xmlns="http://www.w3.org/2000/svg" enable-background="new 0 0 512 512" viewBox="0 0 512 512" id="shopping-bag"><linearGradient id="a" x1="72.012" x2="402.474" y1="472.868" y2="142.406" gradientUnits="userSpaceOnUse"><stop offset="0" stop-color="#fcc60e"></stop><stop offset="1" stop-color="#e92e29"></stop></linearGradient><path fill="url(#a)" d="M390.222,258.682l-12.613-137.217c-0.568-6.176-5.748-10.902-11.95-10.902h-73.276V82.684
	C292.383,39.297,257.085,4,213.699,4s-78.684,35.297-78.684,78.684v27.878H61.737c-6.202,0-11.382,4.726-11.95,10.902
	l-26.07,283.639c-1.008,10.975,2.385,21.08,9.812,29.221c7.429,8.142,17.18,12.446,28.201,12.446h192.333
	C276.174,483.43,316.385,508,362.23,508c69.601,0,126.226-56.625,126.226-126.226C488.456,321.791,446.397,271.45,390.222,258.682z
	 M159.015,82.684c0-30.153,24.531-54.684,54.684-54.684c30.153,0,54.685,24.531,54.685,54.684v27.878H159.015V82.684z M61.73,422.77
	c-4.267,0-7.594-1.469-10.47-4.622c-2.876-3.152-4.033-6.6-3.643-10.849l25.068-272.736h62.33v21.879c0,6.627,5.373,12,12,12
	s12-5.373,12-12v-21.879h109.369v21.879c0,6.627,5.373,12,12,12s12-5.373,12-12v-21.879h62.329l11.126,121.041
	c-1.199-0.034-2.401-0.055-3.608-0.055c-69.601,0-126.226,56.625-126.226,126.226c0,14.344,2.41,28.135,6.839,40.995H61.73z
	 M362.23,484c-56.368,0-102.226-45.858-102.226-102.226c0-56.368,45.858-102.226,102.226-102.226
	c56.367,0,102.226,45.858,102.226,102.226C464.456,438.142,418.597,484,362.23,484z M418.623,344.141
	c4.583,4.787,4.418,12.383-0.369,16.967l-61.276,58.668c-2.318,2.219-5.308,3.332-8.299,3.332c-2.909,0-5.819-1.052-8.116-3.162
	l-34.174-31.384c-4.881-4.483-5.205-12.074-0.722-16.955c4.483-4.883,12.074-5.205,16.955-0.722l25.887,23.773l53.148-50.887
	C406.443,339.189,414.039,339.354,418.623,344.141z"></path></svg>